<svg width="375" height="385" viewBox="0 0 375 385" fill="none" xmlns="http://www.w3.org/2000/svg">
<path d="M237.531 97.1772C352.672 54.0436 419.283 115.001 267.95 280.345C232.94 318.596 162.066 350.332 136.489 340.12C116.378 332.091 90.6054 244.828 86.1305 205.693C81.2358 162.887 122.617 140.226 237.531 97.1772Z" fill="#1A293E"/>
<path d="M266.623 153.323C381.875 215.796 381.961 307.353 146.268 295.328C91.7421 292.546 16.7809 257.437 6.52058 230.792C-1.54702 209.842 47.7753 133.343 74.9286 104.59C104.629 73.14 151.599 90.974 266.623 153.323Z" fill="#1A293E"/>
<path d="M87.6766 276.426C-21.6282 218.418 -10.2551 108.98 227.764 89.2563C282.828 84.6934 354.612 115.82 361.704 146.188C367.28 170.066 307.58 268.65 276.386 306.951C242.266 348.845 196.766 334.32 87.6766 276.426Z" fill="#88DF86"/>
</svg>
