<svg width="375" height="342" viewBox="0 0 375 342" fill="none" xmlns="http://www.w3.org/2000/svg">
<path d="M366.309 166.486C336.771 233.896 229.285 278.346 55.36 260.194C-15.8502 220.499 107.636 136.187 193.714 90.589C279.793 44.9907 403.607 81.367 366.309 166.486Z" fill="#1A293E"/>
<path d="M253.181 287.138C181.672 325.978 90.509 284.72 18.8148 136.065C16.6165 45.8699 149.331 63.0471 230.755 86.9964C312.179 110.946 343.476 238.093 253.181 287.138Z" fill="#1A293E"/>
<path d="M27.187 130.969C76.3451 61.3012 192.345 50.8012 351.845 142.801C399.058 196.5 263.373 271.792 167.345 292.301C71.3173 312.811 -34.8853 218.939 27.187 130.969Z" fill="#88DF86"/>
</svg>
